<svg width="24" height="24" viewBox="0 0 24 24" fill="current" xmlns="http://www.w3.org/2000/svg">
    <path
        d="M21.662 12.0454C21.6713 11.3287 21.2831 10.6699 20.6526 10.3242L5.96073 2.25205C5.30267 1.88014 4.52695 1.92583 3.90687 2.34925C3.27542 2.77981 2.95221 3.80475 3.12873 4.54501L4.50029 10.2913C4.64109 10.8805 5.16844 11.2954 5.77515 11.2928L13.9511 11.2675C14.3698 11.2591 14.7094 11.5986 14.701 12.0173C14.6997 12.4289 14.3652 12.7634 13.9465 12.7718L5.7627 12.7908C5.156 12.792 4.62606 13.2087 4.4816 13.7989L3.06155 19.568C2.88913 20.2497 3.0857 20.9303 3.56673 21.4113C3.62333 21.4679 3.68699 21.5316 3.7507 21.5811C4.37365 22.0617 5.18949 22.123 5.88604 21.7518L20.6278 13.7587C21.2603 13.4232 21.6527 12.7621 21.662 12.0454Z">
    </path>
</svg>